<?xml version="1.0" encoding="utf-8"?><svg xml:space="preserve" viewBox="0 0 100 100" y="0px" x="0px" xmlns:xlink="http://www.w3.org/1999/xlink" xmlns="http://www.w3.org/2000/svg" id="圖層_1" version="1.1" width="66px" height="66px" style="width:100%;transform:;opacity:;height:100%;background-size:initial;background-repeat-y:initial;background-repeat-x:initial;background-position-y:initial;background-position-x:initial;background-origin:initial;background-color:initial;background-clip:initial;background-attachment:initial;animation-play-state:paused" ><g class="ldl-scale" style="transform-origin:50% 50%;transform:scale(0.8);transform:scale(0.8);opacity:;animation-play-state:paused" ><style type="text/css" style="transform:;opacity:;animation-play-state:paused" >.st0{fill:#333333;} .st1{fill:#FFFFFF;} .st2{fill:#849B87;} .st3{fill:#FFFFFF;stroke:#333333;stroke-width:6;stroke-miterlimit:10;} .st4{fill:#CCCCCC;} .st5{fill:#ABBD81;} .st6{fill:#E0E0E0;} .st7{fill:#77A4BD;} .st8{fill:#E15B64;} .st9{fill:#FFFFFF;stroke:#333333;stroke-width:12;stroke-miterlimit:10;} .st10{fill:#666666;} .st11{fill-rule:evenodd;clip-rule:evenodd;fill:#666666;} .st12{fill:none;stroke:#E15B64;stroke-width:16;stroke-miterlimit:10;} .st13{fill:none;stroke:#849B87;stroke-width:16;stroke-miterlimit:10;} .st14{fill:none;stroke:#E15B64;stroke-width:22;stroke-miterlimit:10;} .st15{fill:none;stroke:#849B87;stroke-width:22;stroke-miterlimit:10;} .st16{fill:#A0C8D7;} .st17{fill:none;stroke:#E0E0E0;stroke-width:6;stroke-miterlimit:10;} .st18{fill:none;stroke:#E0E0E0;stroke-width:6;stroke-miterlimit:10;stroke-dasharray:7.5147,8.5882;} .st19{fill:#FFFFFF;stroke:#E15B64;stroke-width:6;stroke-miterlimit:10;} .st20{fill:#FFFFFF;stroke:#ABBD81;stroke-width:6;stroke-miterlimit:10;} .st21{fill:#E0E0E0;stroke:#B3B3B3;stroke-width:4;stroke-miterlimit:10;} .st22{fill:#E0E0E0;stroke:#ABBD81;stroke-width:4;stroke-miterlimit:10;} .st23{fill:#E0E0E0;stroke:#E15B64;stroke-width:4;stroke-miterlimit:10;} .st24{fill:none;stroke:#B3B3B3;stroke-width:4;stroke-linecap:round;stroke-miterlimit:10;} .st25{fill:#FFFFFF;stroke:#666666;stroke-width:6;stroke-miterlimit:10;} .st26{fill:#FFFFFF;stroke:#666666;stroke-width:8;stroke-miterlimit:10;} .st27{fill:none;stroke:#F47E60;stroke-width:19;stroke-linecap:round;stroke-miterlimit:10;} .st28{fill:none;stroke:#F47E60;stroke-width:9;stroke-linecap:round;stroke-miterlimit:10;} .st29{fill:none;stroke:#F47E60;stroke-width:14;stroke-linecap:round;stroke-miterlimit:10;} .st30{fill:none;stroke:#F47E60;stroke-width:10.2857;stroke-linecap:round;stroke-miterlimit:10;} .st31{fill:url(#SVGID_1_);} .st32{fill:url(#SVGID_2_);}</style>
<path d="M2.292,50.048c0,13.531,10.969,24.5,24.5,24.5c0.564,0,1.122-0.026,1.677-0.063h39.323 c13.51,0,24.5-10.991,24.5-24.5s-10.99-24.5-24.5-24.5h-41c-0.272,0-0.535,0.032-0.791,0.083 C12.836,25.986,2.292,36.782,2.292,50.048z" class="st8" style="transform:;opacity:;fill:rgb(225, 91, 100);animation-play-state:paused" ></path>
<circle r="17" cy="50.016" cx="26.792" class="st6" style="transform:;opacity:;fill:rgb(224, 224, 224);animation-play-state:paused" ></circle>
<g style="transform:;opacity:;animation-play-state:paused" ><path d="M61.159,51.373c0,1.399-0.248,2.627-0.742,3.682s-1.203,1.868-2.124,2.441s-1.978,0.859-3.169,0.859 c-1.178,0-2.23-0.283-3.154-0.85s-1.641-1.375-2.148-2.427s-0.765-2.261-0.771-3.628v-0.703c0-1.399,0.252-2.632,0.757-3.696 s1.217-1.882,2.139-2.451s1.974-0.854,3.159-0.854s2.238,0.285,3.159,0.854s1.634,1.387,2.139,2.451s0.757,2.293,0.757,3.687 V51.373z M58.19,50.729c0-1.491-0.267-2.624-0.801-3.398s-1.295-1.162-2.285-1.162c-0.983,0-1.742,0.383-2.275,1.147 s-0.804,1.887-0.811,3.364v0.693c0,1.452,0.267,2.578,0.801,3.379s1.302,1.201,2.305,1.201c0.983,0,1.738-0.386,2.266-1.157 s0.794-1.896,0.801-3.374V50.729z" class="st1" style="transform:;opacity:;fill:rgb(255, 255, 255);animation-play-state:paused" ></path>
<path d="M71.843,52.35h-5.625v5.811h-2.93V43.941h9.258v2.373h-6.328v3.672h5.625V52.35z" class="st1" style="transform:;opacity:;fill:rgb(255, 255, 255);animation-play-state:paused" ></path>
<path d="M82.8,52.35h-5.625v5.811h-2.93V43.941h9.258v2.373h-6.328v3.672H82.8V52.35z" class="st1" style="transform:;opacity:;fill:rgb(255, 255, 255);animation-play-state:paused" ></path></g>
<metadata xmlns:d="https://loading.io/stock/" style="transform:;opacity:;animation-play-state:paused" ><d:name style="transform:;opacity:;animation-play-state:paused" >off</d:name>


<d:tags style="transform:;opacity:;animation-play-state:paused" >switch,choice,close,left,button,option,disabled,off,form</d:tags>


<d:license style="transform:;opacity:;animation-play-state:paused" >pro</d:license>


<d:slug style="transform:;opacity:;animation-play-state:paused" >rvd3g3</d:slug></metadata></g><!-- generated by https://loading.io/ --></svg>